<svg width="96" height="83" viewBox="0 0 96 83" fill="none" xmlns="http://www.w3.org/2000/svg">
<g clip-path="url(#clip0_62_710)">
<path d="M31.0402 79.6118C28.3976 80.3695 25.9576 80.1668 23.9894 79.2064L17.0865 75.8396C19.0542 76.7989 21.4932 77.0012 24.1347 76.2438L31.0402 79.6118Z" fill="#042A76"/>
<path fill-rule="evenodd" clip-rule="evenodd" d="M69.4445 4.06162C72.0859 3.30422 74.5248 3.50643 76.4926 4.46566L69.5871 1.09763C67.6194 0.1384 65.1804 -0.0638123 62.5391 0.693569L62.539 0.693544L62.539 0.693588L24.1347 11.7058L31.0402 15.0738L69.4445 4.06162Z" fill="url(#paint0_linear_62_710)"/>
<path fill-rule="evenodd" clip-rule="evenodd" d="M19.2235 30.7552V70.7072C19.2236 74.7472 21.097 77.7949 23.9894 79.2063L17.0839 75.8382C14.1915 74.4268 12.318 71.3792 12.318 67.3391M12.318 67.3391L12.318 27.3872L19.2235 30.7552" fill="url(#paint1_linear_62_710)"/>
<path d="M19.2235 30.7549C19.2235 23.9657 24.514 16.945 31.0402 15.0736L24.1347 11.7056C17.6085 13.5769 12.318 20.5977 12.318 27.3869L19.2235 30.7549Z" fill="url(#paint2_linear_62_710)"/>
<g filter="url(#filter0_dddd_62_710)">
<rect width="64.5378" height="64.5378" rx="12.2929" transform="matrix(-0.961262 0.275637 0 1 81.2612 0.67334)" fill="url(#paint3_linear_62_710)"/>
</g>
<g filter="url(#filter1_dddddd_62_710)">
<path d="M78.9563 6.4353C77.8038 5.02674 74.2696 2.59377 69.3525 4.13038C64.4353 5.66699 39.6446 12.9659 27.8639 16.4233" stroke="url(#paint4_linear_62_710)" stroke-width="0.768307"/>
</g>
<g filter="url(#filter2_dddddd_62_710)">
<path d="M74.3464 3.36221C72.4257 2.20977 67.3548 -1.14052 62.4377 0.396094C57.5205 1.93271 32.7298 9.23165 20.9491 12.689" stroke="url(#paint5_linear_62_710)" stroke-width="0.768307"/>
</g>
<g filter="url(#filter3_dddddd_62_710)">
<path d="M75.998 64.4157C77.6766 63.7124 81.0157 61.0178 80.9437 55.8667C80.8718 50.7155 80.9013 17.5604 80.9437 5.28287" stroke="url(#paint6_linear_62_710)" stroke-width="2.30492"/>
</g>
<path d="M23.8472 22.2273C22.1702 22.9344 18.8371 25.6362 18.9204 30.7872C19.0037 35.9382 18.9938 61.7811 18.9784 74.0586" stroke="url(#paint7_linear_62_710)" stroke-width="0.768307"/>
<path d="M17.1311 18.3855C15.4541 19.0926 12.121 21.7944 12.2043 26.9454C12.2876 32.0964 12.2776 57.9393 12.2622 70.2168" stroke="url(#paint8_linear_62_710)" stroke-width="0.768307"/>
<g filter="url(#filter4_dddd_62_710)">
<path fill-rule="evenodd" clip-rule="evenodd" d="M42.1593 53.4781L42.1593 35.1924C42.1593 33.2988 43.6348 31.3407 45.455 30.8188L58.638 27.0386C60.4582 26.5167 61.9338 27.6286 61.9338 29.5221L61.9338 47.8078C61.9338 49.7014 60.4582 51.6595 58.638 52.1814L45.455 55.9616C43.6348 56.4836 42.1593 55.3716 42.1593 53.4781ZM45.455 59.3902C41.8146 60.4341 38.8635 58.2102 38.8635 54.4231L38.8635 36.1374C38.8635 32.3503 41.8146 28.4341 45.455 27.3902L58.638 23.61C62.2784 22.5662 65.2296 24.79 65.2296 28.5771L65.2296 46.8628C65.2296 50.6499 62.2784 54.5662 58.638 55.61L45.455 59.3902ZM46.5536 33.9323C45.3402 34.2803 44.3564 35.5857 44.3564 36.8481C44.3564 38.1104 45.3402 38.8517 46.5536 38.5037L57.5395 35.3536C58.7529 35.0057 59.7366 33.7002 59.7366 32.4379C59.7366 31.1755 58.7529 30.4342 57.5395 30.7822L46.5536 33.9323ZM48.7508 49.3023C48.7508 50.5647 47.7671 51.8701 46.5536 52.218C45.3402 52.566 44.3564 51.8247 44.3564 50.5623C44.3564 49.3 45.3402 47.9946 46.5536 47.6466C47.7671 47.2986 48.7508 48.0399 48.7508 49.3023ZM52.0465 50.643C53.26 50.295 54.2437 48.9896 54.2437 47.7272C54.2437 46.4649 53.26 45.7236 52.0465 46.0715C50.8331 46.4195 49.8494 47.7249 49.8494 48.9873C49.8494 50.2496 50.8331 50.9909 52.0465 50.643ZM59.7366 46.1522C59.7366 47.4145 58.7529 48.7199 57.5395 49.0679C56.326 49.4158 55.3423 48.6746 55.3423 47.4122C55.3423 46.1498 56.326 44.8444 57.5395 44.4965C58.7529 44.1485 59.7366 44.8898 59.7366 46.1522ZM46.5536 45.3609C47.7671 45.0129 48.7508 43.7075 48.7508 42.4451C48.7508 41.1828 47.7671 40.4415 46.5536 40.7895C45.3402 41.1374 44.3564 42.4428 44.3564 43.7052C44.3564 44.9676 45.3402 45.7088 46.5536 45.3609ZM54.2437 40.8701C54.2437 42.1324 53.26 43.4379 52.0465 43.7858C50.8331 44.1338 49.8494 43.3925 49.8494 42.1301C49.8494 40.8678 50.8331 39.5623 52.0465 39.2144C53.26 38.8664 54.2437 39.6077 54.2437 40.8701ZM57.5395 42.2108C58.7529 41.8628 59.7366 40.5574 59.7366 39.295C59.7366 38.0326 58.7529 37.2914 57.5395 37.6393C56.326 37.9873 55.3423 39.2927 55.3423 40.5551C55.3423 41.8174 56.326 42.5587 57.5395 42.2108Z" fill="white"/>
</g>
</g>
<defs>
<filter id="filter0_dddd_62_710" x="17.687" y="-1.77805" width="91.2333" height="91.8393" filterUnits="userSpaceOnUse" color-interpolation-filters="sRGB">
<feFlood flood-opacity="0" result="BackgroundImageFix"/>
<feColorMatrix in="SourceAlpha" type="matrix" values="0 0 0 0 0 0 0 0 0 0 0 0 0 0 0 0 0 0 127 0" result="hardAlpha"/>
<feOffset dx="1.53661"/>
<feGaussianBlur stdDeviation="1.53661"/>
<feColorMatrix type="matrix" values="0 0 0 0 0 0 0 0 0 0.701961 0 0 0 0 1 0 0 0 0.1 0"/>
<feBlend mode="normal" in2="BackgroundImageFix" result="effect1_dropShadow_62_710"/>
<feColorMatrix in="SourceAlpha" type="matrix" values="0 0 0 0 0 0 0 0 0 0 0 0 0 0 0 0 0 0 127 0" result="hardAlpha"/>
<feOffset dx="4.60984" dy="0.768307"/>
<feGaussianBlur stdDeviation="2.30492"/>
<feColorMatrix type="matrix" values="0 0 0 0 0 0 0 0 0 0.701961 0 0 0 0 1 0 0 0 0.09 0"/>
<feBlend mode="normal" in2="effect1_dropShadow_62_710" result="effect2_dropShadow_62_710"/>
<feColorMatrix in="SourceAlpha" type="matrix" values="0 0 0 0 0 0 0 0 0 0 0 0 0 0 0 0 0 0 127 0" result="hardAlpha"/>
<feOffset dx="11.5246" dy="1.53661"/>
<feGaussianBlur stdDeviation="3.45738"/>
<feColorMatrix type="matrix" values="0 0 0 0 0 0 0 0 0 0.701961 0 0 0 0 1 0 0 0 0.05 0"/>
<feBlend mode="normal" in2="effect2_dropShadow_62_710" result="effect3_dropShadow_62_710"/>
<feColorMatrix in="SourceAlpha" type="matrix" values="0 0 0 0 0 0 0 0 0 0 0 0 0 0 0 0 0 0 127 0" result="hardAlpha"/>
<feOffset dx="19.976" dy="2.30492"/>
<feGaussianBlur stdDeviation="3.84153"/>
<feColorMatrix type="matrix" values="0 0 0 0 0 0 0 0 0 0.701961 0 0 0 0 1 0 0 0 0.01 0"/>
<feBlend mode="normal" in2="effect3_dropShadow_62_710" result="effect4_dropShadow_62_710"/>
<feBlend mode="normal" in="SourceGraphic" in2="effect4_dropShadow_62_710" result="shape"/>
</filter>
<filter id="filter1_dddddd_62_710" x="-164.321" y="-188.822" width="435.651" height="397.691" filterUnits="userSpaceOnUse" color-interpolation-filters="sRGB">
<feFlood flood-opacity="0" result="BackgroundImageFix"/>
<feColorMatrix in="SourceAlpha" type="matrix" values="0 0 0 0 0 0 0 0 0 0 0 0 0 0 0 0 0 0 127 0" result="hardAlpha"/>
<feOffset/>
<feGaussianBlur stdDeviation="2.29916"/>
<feColorMatrix type="matrix" values="0 0 0 0 1 0 0 0 0 1 0 0 0 0 1 0 0 0 1 0"/>
<feBlend mode="normal" in2="BackgroundImageFix" result="effect1_dropShadow_62_710"/>
<feColorMatrix in="SourceAlpha" type="matrix" values="0 0 0 0 0 0 0 0 0 0 0 0 0 0 0 0 0 0 127 0" result="hardAlpha"/>
<feOffset/>
<feGaussianBlur stdDeviation="4.59832"/>
<feColorMatrix type="matrix" values="0 0 0 0 1 0 0 0 0 1 0 0 0 0 1 0 0 0 1 0"/>
<feBlend mode="normal" in2="effect1_dropShadow_62_710" result="effect2_dropShadow_62_710"/>
<feColorMatrix in="SourceAlpha" type="matrix" values="0 0 0 0 0 0 0 0 0 0 0 0 0 0 0 0 0 0 127 0" result="hardAlpha"/>
<feOffset/>
<feGaussianBlur stdDeviation="16.0941"/>
<feColorMatrix type="matrix" values="0 0 0 0 1 0 0 0 0 1 0 0 0 0 1 0 0 0 1 0"/>
<feBlend mode="normal" in2="effect2_dropShadow_62_710" result="effect3_dropShadow_62_710"/>
<feColorMatrix in="SourceAlpha" type="matrix" values="0 0 0 0 0 0 0 0 0 0 0 0 0 0 0 0 0 0 127 0" result="hardAlpha"/>
<feOffset/>
<feGaussianBlur stdDeviation="32.1882"/>
<feColorMatrix type="matrix" values="0 0 0 0 1 0 0 0 0 1 0 0 0 0 1 0 0 0 1 0"/>
<feBlend mode="normal" in2="effect3_dropShadow_62_710" result="effect4_dropShadow_62_710"/>
<feColorMatrix in="SourceAlpha" type="matrix" values="0 0 0 0 0 0 0 0 0 0 0 0 0 0 0 0 0 0 127 0" result="hardAlpha"/>
<feOffset/>
<feGaussianBlur stdDeviation="55.1798"/>
<feColorMatrix type="matrix" values="0 0 0 0 1 0 0 0 0 1 0 0 0 0 1 0 0 0 1 0"/>
<feBlend mode="normal" in2="effect4_dropShadow_62_710" result="effect5_dropShadow_62_710"/>
<feColorMatrix in="SourceAlpha" type="matrix" values="0 0 0 0 0 0 0 0 0 0 0 0 0 0 0 0 0 0 127 0" result="hardAlpha"/>
<feOffset/>
<feGaussianBlur stdDeviation="96.0384"/>
<feColorMatrix type="matrix" values="0 0 0 0 1 0 0 0 0 1 0 0 0 0 1 0 0 0 1 0"/>
<feBlend mode="normal" in2="effect5_dropShadow_62_710" result="effect6_dropShadow_62_710"/>
<feBlend mode="normal" in="SourceGraphic" in2="effect6_dropShadow_62_710" result="shape"/>
</filter>
<filter id="filter2_dddddd_62_710" x="-171.236" y="-192.461" width="437.857" height="397.595" filterUnits="userSpaceOnUse" color-interpolation-filters="sRGB">
<feFlood flood-opacity="0" result="BackgroundImageFix"/>
<feColorMatrix in="SourceAlpha" type="matrix" values="0 0 0 0 0 0 0 0 0 0 0 0 0 0 0 0 0 0 127 0" result="hardAlpha"/>
<feOffset/>
<feGaussianBlur stdDeviation="2.29916"/>
<feColorMatrix type="matrix" values="0 0 0 0 1 0 0 0 0 1 0 0 0 0 1 0 0 0 1 0"/>
<feBlend mode="normal" in2="BackgroundImageFix" result="effect1_dropShadow_62_710"/>
<feColorMatrix in="SourceAlpha" type="matrix" values="0 0 0 0 0 0 0 0 0 0 0 0 0 0 0 0 0 0 127 0" result="hardAlpha"/>
<feOffset/>
<feGaussianBlur stdDeviation="4.59832"/>
<feColorMatrix type="matrix" values="0 0 0 0 1 0 0 0 0 1 0 0 0 0 1 0 0 0 1 0"/>
<feBlend mode="normal" in2="effect1_dropShadow_62_710" result="effect2_dropShadow_62_710"/>
<feColorMatrix in="SourceAlpha" type="matrix" values="0 0 0 0 0 0 0 0 0 0 0 0 0 0 0 0 0 0 127 0" result="hardAlpha"/>
<feOffset/>
<feGaussianBlur stdDeviation="16.0941"/>
<feColorMatrix type="matrix" values="0 0 0 0 1 0 0 0 0 1 0 0 0 0 1 0 0 0 1 0"/>
<feBlend mode="normal" in2="effect2_dropShadow_62_710" result="effect3_dropShadow_62_710"/>
<feColorMatrix in="SourceAlpha" type="matrix" values="0 0 0 0 0 0 0 0 0 0 0 0 0 0 0 0 0 0 127 0" result="hardAlpha"/>
<feOffset/>
<feGaussianBlur stdDeviation="32.1882"/>
<feColorMatrix type="matrix" values="0 0 0 0 1 0 0 0 0 1 0 0 0 0 1 0 0 0 1 0"/>
<feBlend mode="normal" in2="effect3_dropShadow_62_710" result="effect4_dropShadow_62_710"/>
<feColorMatrix in="SourceAlpha" type="matrix" values="0 0 0 0 0 0 0 0 0 0 0 0 0 0 0 0 0 0 127 0" result="hardAlpha"/>
<feOffset/>
<feGaussianBlur stdDeviation="55.1798"/>
<feColorMatrix type="matrix" values="0 0 0 0 1 0 0 0 0 1 0 0 0 0 1 0 0 0 1 0"/>
<feBlend mode="normal" in2="effect4_dropShadow_62_710" result="effect5_dropShadow_62_710"/>
<feColorMatrix in="SourceAlpha" type="matrix" values="0 0 0 0 0 0 0 0 0 0 0 0 0 0 0 0 0 0 127 0" result="hardAlpha"/>
<feOffset/>
<feGaussianBlur stdDeviation="96.0384"/>
<feColorMatrix type="matrix" values="0 0 0 0 1 0 0 0 0 1 0 0 0 0 1 0 0 0 1 0"/>
<feBlend mode="normal" in2="effect5_dropShadow_62_710" result="effect6_dropShadow_62_710"/>
<feBlend mode="normal" in="SourceGraphic" in2="effect6_dropShadow_62_710" result="shape"/>
</filter>
<filter id="filter3_dddddd_62_710" x="-116.524" y="-186.798" width="390.698" height="444.353" filterUnits="userSpaceOnUse" color-interpolation-filters="sRGB">
<feFlood flood-opacity="0" result="BackgroundImageFix"/>
<feColorMatrix in="SourceAlpha" type="matrix" values="0 0 0 0 0 0 0 0 0 0 0 0 0 0 0 0 0 0 127 0" result="hardAlpha"/>
<feOffset/>
<feGaussianBlur stdDeviation="2.29916"/>
<feColorMatrix type="matrix" values="0 0 0 0 1 0 0 0 0 1 0 0 0 0 1 0 0 0 1 0"/>
<feBlend mode="normal" in2="BackgroundImageFix" result="effect1_dropShadow_62_710"/>
<feColorMatrix in="SourceAlpha" type="matrix" values="0 0 0 0 0 0 0 0 0 0 0 0 0 0 0 0 0 0 127 0" result="hardAlpha"/>
<feOffset/>
<feGaussianBlur stdDeviation="4.59832"/>
<feColorMatrix type="matrix" values="0 0 0 0 1 0 0 0 0 1 0 0 0 0 1 0 0 0 1 0"/>
<feBlend mode="normal" in2="effect1_dropShadow_62_710" result="effect2_dropShadow_62_710"/>
<feColorMatrix in="SourceAlpha" type="matrix" values="0 0 0 0 0 0 0 0 0 0 0 0 0 0 0 0 0 0 127 0" result="hardAlpha"/>
<feOffset/>
<feGaussianBlur stdDeviation="16.0941"/>
<feColorMatrix type="matrix" values="0 0 0 0 1 0 0 0 0 1 0 0 0 0 1 0 0 0 1 0"/>
<feBlend mode="normal" in2="effect2_dropShadow_62_710" result="effect3_dropShadow_62_710"/>
<feColorMatrix in="SourceAlpha" type="matrix" values="0 0 0 0 0 0 0 0 0 0 0 0 0 0 0 0 0 0 127 0" result="hardAlpha"/>
<feOffset/>
<feGaussianBlur stdDeviation="32.1882"/>
<feColorMatrix type="matrix" values="0 0 0 0 1 0 0 0 0 1 0 0 0 0 1 0 0 0 1 0"/>
<feBlend mode="normal" in2="effect3_dropShadow_62_710" result="effect4_dropShadow_62_710"/>
<feColorMatrix in="SourceAlpha" type="matrix" values="0 0 0 0 0 0 0 0 0 0 0 0 0 0 0 0 0 0 127 0" result="hardAlpha"/>
<feOffset/>
<feGaussianBlur stdDeviation="55.1798"/>
<feColorMatrix type="matrix" values="0 0 0 0 1 0 0 0 0 1 0 0 0 0 1 0 0 0 1 0"/>
<feBlend mode="normal" in2="effect4_dropShadow_62_710" result="effect5_dropShadow_62_710"/>
<feColorMatrix in="SourceAlpha" type="matrix" values="0 0 0 0 0 0 0 0 0 0 0 0 0 0 0 0 0 0 127 0" result="hardAlpha"/>
<feOffset/>
<feGaussianBlur stdDeviation="96.0384"/>
<feColorMatrix type="matrix" values="0 0 0 0 1 0 0 0 0 1 0 0 0 0 1 0 0 0 1 0"/>
<feBlend mode="normal" in2="effect5_dropShadow_62_710" result="effect6_dropShadow_62_710"/>
<feBlend mode="normal" in="SourceGraphic" in2="effect6_dropShadow_62_710" result="shape"/>
</filter>
<filter id="filter4_dddd_62_710" x="22.8635" y="18.3525" width="43.366" height="46.2954" filterUnits="userSpaceOnUse" color-interpolation-filters="sRGB">
<feFlood flood-opacity="0" result="BackgroundImageFix"/>
<feColorMatrix in="SourceAlpha" type="matrix" values="0 0 0 0 0 0 0 0 0 0 0 0 0 0 0 0 0 0 127 0" result="hardAlpha"/>
<feOffset dx="-1"/>
<feGaussianBlur stdDeviation="1"/>
<feColorMatrix type="matrix" values="0 0 0 0 0 0 0 0 0 0 0 0 0 0 0 0 0 0 0.1 0"/>
<feBlend mode="normal" in2="BackgroundImageFix" result="effect1_dropShadow_62_710"/>
<feColorMatrix in="SourceAlpha" type="matrix" values="0 0 0 0 0 0 0 0 0 0 0 0 0 0 0 0 0 0 127 0" result="hardAlpha"/>
<feOffset dx="-3"/>
<feGaussianBlur stdDeviation="1.5"/>
<feColorMatrix type="matrix" values="0 0 0 0 0 0 0 0 0 0 0 0 0 0 0 0 0 0 0.09 0"/>
<feBlend mode="normal" in2="effect1_dropShadow_62_710" result="effect2_dropShadow_62_710"/>
<feColorMatrix in="SourceAlpha" type="matrix" values="0 0 0 0 0 0 0 0 0 0 0 0 0 0 0 0 0 0 127 0" result="hardAlpha"/>
<feOffset dx="-6"/>
<feGaussianBlur stdDeviation="2"/>
<feColorMatrix type="matrix" values="0 0 0 0 0 0 0 0 0 0 0 0 0 0 0 0 0 0 0.05 0"/>
<feBlend mode="normal" in2="effect2_dropShadow_62_710" result="effect3_dropShadow_62_710"/>
<feColorMatrix in="SourceAlpha" type="matrix" values="0 0 0 0 0 0 0 0 0 0 0 0 0 0 0 0 0 0 127 0" result="hardAlpha"/>
<feOffset dx="-11"/>
<feGaussianBlur stdDeviation="2.5"/>
<feColorMatrix type="matrix" values="0 0 0 0 0 0 0 0 0 0 0 0 0 0 0 0 0 0 0.01 0"/>
<feBlend mode="normal" in2="effect3_dropShadow_62_710" result="effect4_dropShadow_62_710"/>
<feBlend mode="normal" in="SourceGraphic" in2="effect4_dropShadow_62_710" result="shape"/>
</filter>
<linearGradient id="paint0_linear_62_710" x1="73.5781" y1="2.59402" x2="27.4797" y2="17.1918" gradientUnits="userSpaceOnUse">
<stop stop-color="#BAC9FF"/>
<stop offset="0.0666667" stop-color="#B9C7FE"/>
<stop offset="0.133333" stop-color="#B4C4FB"/>
<stop offset="0.2" stop-color="#ACBEF6"/>
<stop offset="0.266667" stop-color="#A1B5EE"/>
<stop offset="0.333333" stop-color="#93AAE5"/>
<stop offset="0.4" stop-color="#829DD9"/>
<stop offset="0.466667" stop-color="#6F8FCD"/>
<stop offset="0.533333" stop-color="#5C80C0"/>
<stop offset="0.6" stop-color="#4971B4"/>
<stop offset="0.666667" stop-color="#3864A8"/>
<stop offset="0.733333" stop-color="#2A599F"/>
<stop offset="0.8" stop-color="#1F5197"/>
<stop offset="0.866667" stop-color="#174B92"/>
<stop offset="0.933333" stop-color="#12478F"/>
<stop offset="1" stop-color="#11468E"/>
</linearGradient>
<linearGradient id="paint1_linear_62_710" x1="17.4918" y1="31.4056" x2="18.1538" y2="79.2064" gradientUnits="userSpaceOnUse">
<stop stop-color="#13488E"/>
<stop offset="1" stop-color="#074EDC"/>
</linearGradient>
<linearGradient id="paint2_linear_62_710" x1="26.7114" y1="14.5025" x2="21.6791" y2="30.7549" gradientUnits="userSpaceOnUse">
<stop stop-color="#184D93"/>
<stop offset="1" stop-color="#15438B"/>
</linearGradient>
<linearGradient id="paint3_linear_62_710" x1="53.9507" y1="8.17838" x2="-11.8011" y2="40.6185" gradientUnits="userSpaceOnUse">
<stop stop-color="#3591FF"/>
<stop offset="0.0666667" stop-color="#3691FF"/>
<stop offset="0.133333" stop-color="#3991FF"/>
<stop offset="0.2" stop-color="#3E91FF"/>
<stop offset="0.266667" stop-color="#4592FF"/>
<stop offset="0.333333" stop-color="#4E92FF"/>
<stop offset="0.4" stop-color="#5893FF"/>
<stop offset="0.466667" stop-color="#6494FF"/>
<stop offset="0.533333" stop-color="#7094FF"/>
<stop offset="0.6" stop-color="#7C95FF"/>
<stop offset="0.666667" stop-color="#8696FF"/>
<stop offset="0.733333" stop-color="#8F96FF"/>
<stop offset="0.8" stop-color="#9697FF"/>
<stop offset="0.866667" stop-color="#9B97FF"/>
<stop offset="0.933333" stop-color="#9E97FF"/>
<stop offset="1" stop-color="#9F97FF"/>
</linearGradient>
<linearGradient id="paint4_linear_62_710" x1="78.9563" y1="10.0312" x2="28.6322" y2="16.0392" gradientUnits="userSpaceOnUse">
<stop stop-color="white" stop-opacity="0"/>
<stop offset="0.409" stop-color="white"/>
<stop offset="1" stop-color="white" stop-opacity="0"/>
</linearGradient>
<linearGradient id="paint5_linear_62_710" x1="72.0415" y1="6.29694" x2="21.7174" y2="12.3049" gradientUnits="userSpaceOnUse">
<stop stop-color="white" stop-opacity="0"/>
<stop offset="0.409" stop-color="white"/>
<stop offset="1" stop-color="white" stop-opacity="0"/>
</linearGradient>
<linearGradient id="paint6_linear_62_710" x1="72.5511" y1="65.6961" x2="79.8567" y2="-0.479419" gradientUnits="userSpaceOnUse">
<stop stop-color="white" stop-opacity="0"/>
<stop offset="0.409" stop-color="white"/>
<stop offset="1" stop-color="white" stop-opacity="0"/>
</linearGradient>
<linearGradient id="paint7_linear_62_710" x1="27.2964" y1="23.2442" x2="18.8272" y2="73.2131" gradientUnits="userSpaceOnUse">
<stop stop-color="#233FF1" stop-opacity="0"/>
<stop offset="0.409" stop-color="#1939B8"/>
<stop offset="1" stop-color="#0F156F" stop-opacity="0"/>
</linearGradient>
<linearGradient id="paint8_linear_62_710" x1="20.5802" y1="19.4024" x2="12.1111" y2="69.3713" gradientUnits="userSpaceOnUse">
<stop stop-color="#00092E" stop-opacity="0"/>
<stop offset="0.409" stop-color="#0A2CB4"/>
<stop offset="1" stop-color="#00092E" stop-opacity="0"/>
</linearGradient>
<clipPath id="clip0_62_710">
<rect width="95.2296" height="83" fill="white"/>
</clipPath>
</defs>
</svg>
