<svg width="25" height="24" viewBox="0 0 25 24" fill="none" xmlns="http://www.w3.org/2000/svg">
<g clip-path="url(#clip0_1_190)">
<rect width="24" height="24" transform="translate(0.333313)" fill="white"/>
<path d="M7.38441 14.5218C10.4501 12.6824 13.0158 10.1167 14.8552 7.05104C14.9303 6.92582 15.1118 6.92582 15.187 7.05104C17.0264 10.1167 19.5921 12.6824 22.6578 14.5218C22.783 14.597 22.783 14.7785 22.6578 14.8536C19.5921 16.693 17.0264 19.2587 15.187 22.3244C15.1118 22.4496 14.9303 22.4496 14.8552 22.3244C13.0158 19.2587 10.4501 16.693 7.38441 14.8536C7.25919 14.7785 7.25919 14.597 7.38441 14.5218Z" stroke="#0253F6" stroke-width="2.19833"/>
<path d="M7.29068 9.32137C6.31216 7.7293 4.97267 6.38981 3.38059 5.41129C4.97267 4.43276 6.31216 3.09327 7.29068 1.5012C8.2692 3.09327 9.60869 4.43276 11.2008 5.41128C9.60869 6.38981 8.2692 7.7293 7.29068 9.32137Z" stroke="#0253F6" stroke-width="1.54608"/>
<path d="M4.19852 23.6125C3.5073 22.5009 2.56963 21.5633 1.4581 20.872C2.56963 20.1808 3.5073 19.2432 4.19852 18.1316C4.88974 19.2432 5.82741 20.1808 6.93893 20.872C5.82741 21.5633 4.88974 22.5009 4.19852 23.6125Z" stroke="#0253F6" stroke-width="1.15956"/>
</g>
<defs>
<clipPath id="clip0_1_190">
<rect width="24" height="24" fill="white" transform="translate(0.333313)"/>
</clipPath>
</defs>
</svg>
